<svg xmlns="http://www.w3.org/2000/svg" viewBox="0 0 900 1950" role="img" aria-label="Attune screenshot 1">
  <rect width="900" height="1950" fill="#0d0e11"/>
  <rect x="40" y="40" width="820" height="1870" rx="84" fill="#15171b" stroke="#262a31" stroke-width="2"/>
  <rect x="360" y="78" width="180" height="26" rx="13" fill="#0d0e11"/>
  <text x="120" y="150" font-family="ui-monospace, monospace" font-size="24" fill="#6b7078">9:41</text>
  <text x="120" y="320" font-family="system-ui, sans-serif" font-size="60" font-weight="600" fill="#eae7e1">Attune</text>
  <text x="120" y="380" font-family="system-ui, sans-serif" font-size="30" fill="#9aa0a8">Build your session</text>
  <circle cx="450" cy="470" r="4" fill="#c8974a"/>
  <rect x="120" y="560" width="660" height="168" rx="20" fill="#191c21" stroke="#c8974a" stroke-width="2"/><rect x="152" y="592" width="260" height="18" rx="6" fill="#9aa0a8" opacity="0.7"/><rect x="152" y="624" width="400" height="14" rx="6" fill="#6b7078" opacity="0.6"/><rect x="120" y="760" width="660" height="168" rx="20" fill="#191c21" stroke="#262a31" stroke-width="1"/><rect x="152" y="792" width="260" height="18" rx="6" fill="#9aa0a8" opacity="0.7"/><rect x="152" y="824" width="400" height="14" rx="6" fill="#6b7078" opacity="0.6"/><rect x="120" y="960" width="660" height="168" rx="20" fill="#191c21" stroke="#262a31" stroke-width="1"/><rect x="152" y="992" width="260" height="18" rx="6" fill="#9aa0a8" opacity="0.7"/><rect x="152" y="1024" width="400" height="14" rx="6" fill="#6b7078" opacity="0.6"/>
  <rect x="120" y="1680" width="660" height="120" rx="60" fill="#c8974a"/>
  <text x="450" y="1755" text-anchor="middle" font-family="system-ui, sans-serif" font-size="34" font-weight="600" fill="#0d0e11">Begin session</text>
  <text x="780" y="1870" text-anchor="end" font-family="ui-monospace, monospace" font-size="22" fill="#6b7078">PLACEHOLDER · 1/3</text>
</svg>
