<svg xmlns="http://www.w3.org/2000/svg" viewBox="0 0 1600 1000" role="img" aria-label="Shelf for Books screenshot 3">
  <rect width="1600" height="1000" fill="#0d0e11"/>
  <rect x="40" y="40" width="1520" height="920" rx="22" fill="#15171b" stroke="#262a31" stroke-width="2"/>
  <path d="M40 62 a22 22 0 0 1 22 -22 h1476 a22 22 0 0 1 22 22 v42 h-1520 z" fill="#191c21"/>
  <circle cx="80" cy="72" r="7" fill="#3a3f49"/><circle cx="106" cy="72" r="7" fill="#3a3f49"/><circle cx="132" cy="72" r="7" fill="#3a3f49"/>
  <text x="800" y="78" text-anchor="middle" font-family="ui-monospace, monospace" font-size="20" fill="#9aa0a8">Shelf for Books</text>
  <rect x="72" y="128" width="288" height="800" rx="14" fill="#0d0e11" stroke="#262a31" stroke-width="1"/>
  <rect x="96" y="168" width="140" height="20" rx="6" fill="#6b7078" opacity="0.5"/><rect x="96" y="224" width="140" height="20" rx="6" fill="#6b7078" opacity="0.5"/><rect x="96" y="280" width="180" height="20" rx="6" fill="#c8974a" opacity="0.9"/><rect x="96" y="336" width="140" height="20" rx="6" fill="#6b7078" opacity="0.5"/><rect x="96" y="392" width="140" height="20" rx="6" fill="#6b7078" opacity="0.5"/><rect x="96" y="448" width="140" height="20" rx="6" fill="#6b7078" opacity="0.5"/>
  <rect x="400" y="150" width="260" height="200" rx="12" fill="#191c21" stroke="#262a31" stroke-width="1"/><rect x="420" y="304" width="150" height="12" rx="4" fill="#6b7078" opacity="0.6"/><rect x="420" y="324" width="96" height="10" rx="4" fill="#6b7078" opacity="0.4"/><rect x="700" y="150" width="260" height="200" rx="12" fill="#191c21" stroke="#262a31" stroke-width="1"/><rect x="720" y="304" width="150" height="12" rx="4" fill="#6b7078" opacity="0.6"/><rect x="720" y="324" width="96" height="10" rx="4" fill="#6b7078" opacity="0.4"/><rect x="1000" y="150" width="260" height="200" rx="12" fill="#191c21" stroke="#262a31" stroke-width="1"/><rect x="1020" y="304" width="150" height="12" rx="4" fill="#6b7078" opacity="0.6"/><rect x="1020" y="324" width="96" height="10" rx="4" fill="#6b7078" opacity="0.4"/><rect x="1300" y="150" width="260" height="200" rx="12" fill="#191c21" stroke="#262a31" stroke-width="1"/><rect x="1320" y="304" width="150" height="12" rx="4" fill="#6b7078" opacity="0.6"/><rect x="1320" y="324" width="96" height="10" rx="4" fill="#6b7078" opacity="0.4"/><rect x="400" y="390" width="260" height="200" rx="12" fill="#191c21" stroke="#c8974a" stroke-width="2"/><rect x="420" y="544" width="150" height="12" rx="4" fill="#6b7078" opacity="0.6"/><rect x="420" y="564" width="96" height="10" rx="4" fill="#6b7078" opacity="0.4"/><rect x="700" y="390" width="260" height="200" rx="12" fill="#191c21" stroke="#262a31" stroke-width="1"/><rect x="720" y="544" width="150" height="12" rx="4" fill="#6b7078" opacity="0.6"/><rect x="720" y="564" width="96" height="10" rx="4" fill="#6b7078" opacity="0.4"/><rect x="1000" y="390" width="260" height="200" rx="12" fill="#191c21" stroke="#262a31" stroke-width="1"/><rect x="1020" y="544" width="150" height="12" rx="4" fill="#6b7078" opacity="0.6"/><rect x="1020" y="564" width="96" height="10" rx="4" fill="#6b7078" opacity="0.4"/><rect x="1300" y="390" width="260" height="200" rx="12" fill="#191c21" stroke="#262a31" stroke-width="1"/><rect x="1320" y="544" width="150" height="12" rx="4" fill="#6b7078" opacity="0.6"/><rect x="1320" y="564" width="96" height="10" rx="4" fill="#6b7078" opacity="0.4"/><rect x="400" y="630" width="260" height="200" rx="12" fill="#191c21" stroke="#262a31" stroke-width="1"/><rect x="420" y="784" width="150" height="12" rx="4" fill="#6b7078" opacity="0.6"/><rect x="420" y="804" width="96" height="10" rx="4" fill="#6b7078" opacity="0.4"/><rect x="700" y="630" width="260" height="200" rx="12" fill="#191c21" stroke="#262a31" stroke-width="1"/><rect x="720" y="784" width="150" height="12" rx="4" fill="#6b7078" opacity="0.6"/><rect x="720" y="804" width="96" height="10" rx="4" fill="#6b7078" opacity="0.4"/><rect x="1000" y="630" width="260" height="200" rx="12" fill="#191c21" stroke="#262a31" stroke-width="1"/><rect x="1020" y="784" width="150" height="12" rx="4" fill="#6b7078" opacity="0.6"/><rect x="1020" y="804" width="96" height="10" rx="4" fill="#6b7078" opacity="0.4"/><rect x="1300" y="630" width="260" height="200" rx="12" fill="#191c21" stroke="#262a31" stroke-width="1"/><rect x="1320" y="784" width="150" height="12" rx="4" fill="#6b7078" opacity="0.6"/><rect x="1320" y="804" width="96" height="10" rx="4" fill="#6b7078" opacity="0.4"/>
  <text x="1520" y="936" text-anchor="end" font-family="ui-monospace, monospace" font-size="18" fill="#6b7078">PLACEHOLDER · 3/3</text>
</svg>
